  0
SECTION
  2
HEADER
  9
$MEASUREMENT
  70
  1
  9
$INSUNITS
  70
  4
  0
ENDSEC
  0
SECTION
  2
TABLES
  0
TABLE
  2
LTYPE
 70
     1
  0
LTYPE
  2
CONTINUOUS
 70
    64
  3
Ausgezogene Linie
 72
    65
 73
     0
 40
0.0
  0
ENDTAB
  0
TABLE
  2
LAYER
 70
     3
  0
LAYER
  2
Contour
 70
    64
 62
     7
  6
CONTINUOUS
  0
LAYER
  2
Engraving
 70
    64
 62
     7
  6
CONTINUOUS
  0
LAYER
  2
Reference_points
 70
    64
 62
     1
  6
CONTINUOUS
  0
ENDTAB
  0
TABLE
  2
STYLE
 70
     1
  0
STYLE
  2
TXT
 70
    64
 40
0.0
 41
1.0
 50
0.0
 71
     0
 42
3.500000
  3
TXT
  0
ENDTAB
  0
ENDSEC
  0
SECTION
  2
BLOCKS
  0
ENDSEC
  0
SECTION
  2
ENTITIES
  0
LINE
  8
Contour
 62
   7
 39
0.100
  6
CONTINUOUS
 10
483.00000
 20
88.05000
 30
 0
 11
483.00000
 21
0.00000
  0
LINE
  8
Contour
 62
   7
 39
0.100
  6
CONTINUOUS
 10
483.00000
 20
0.00000
 30
 0
 11
0.00000
 21
0.00000
  0
LINE
  8
Contour
 62
   7
 39
0.100
  6
CONTINUOUS
 10
0.00000
 20
0.00000
 30
 0
 11
0.00000
 21
88.05000
  0
LINE
  8
Contour
 62
   7
 39
0.100
  6
CONTINUOUS
 10
0.00000
 20
88.05000
 30
 0
 11
483.00000
 21
88.05000
  0
LINE
  8
Engraving
 62
   255
 39
0.400
  6
CONTINUOUS
 10
160.00060
 20
65.75700
 30
 0
 11
160.00060
 21
62.70000
  0
LINE
  8
Engraving
 62
   255
 39
0.400
  6
CONTINUOUS
 10
160.81560
 20
62.49620
 30
 0
 11
162.10633
 21
65.92683
  0
ARC
  8
Engraving
 62
   255
 39
0.400
  6
CONTINUOUS
 10
164.00753
 20
63.71900
 30
 0
 40
1.08693
 50
180.00000
 51
360.00000
  0
LINE
  8
Engraving
 62
   255
 39
0.400
  6
CONTINUOUS
 10
165.09447
 20
63.71900
 30
 0
 11
165.09447
 21
64.73800
  0
ARC
  8
Engraving
 62
   255
 39
0.400
  6
CONTINUOUS
 10
164.00753
 20
64.73800
 30
 0
 40
1.08693
 50
0.00000
 51
180.00000
  0
LINE
  8
Engraving
 62
   255
 39
0.400
  6
CONTINUOUS
 10
162.92060
 20
64.73800
 30
 0
 11
162.92060
 21
63.71900
  0
LINE
  8
Engraving
 62
   255
 39
0.400
  6
CONTINUOUS
 10
165.94357
 20
65.45130
 30
 0
 11
166.14737
 21
65.62113
  0
ARC
  8
Engraving
 62
   255
 39
0.400
  6
CONTINUOUS
 10
166.69805
 20
64.98299
 30
 0
 40
0.84290
 50
-40.79241
 51
130.79241
  0
LINE
  8
Engraving
 62
   255
 39
0.400
  6
CONTINUOUS
 10
167.33620
 20
64.43230
 30
 0
 11
165.90960
 21
62.70000
  0
LINE
  8
Engraving
 62
   255
 39
0.400
  6
CONTINUOUS
 10
165.90960
 20
62.70000
 30
 0
 11
167.60793
 21
62.70000
  0
ARC
  8
Engraving
 62
   255
 39
0.400
  6
CONTINUOUS
 10
175.92387
 20
64.22850
 30
 0
 40
5.32693
 50
159.46972
 51
200.53028
  0
LINE
  8
Engraving
 62
   255
 39
0.400
  6
CONTINUOUS
 10
171.74960
 20
64.22850
 30
 0
 11
173.44793
 21
64.22850
  0
LINE
  8
Engraving
 62
   255
 39
0.400
  6
CONTINUOUS
 10
173.78760
 20
65.75700
 30
 0
 11
171.74960
 21
65.75700
  0
LINE
  8
Engraving
 62
   255
 39
0.400
  6
CONTINUOUS
 10
171.74960
 20
65.75700
 30
 0
 11
171.74960
 21
62.70000
  0
LINE
  8
Engraving
 62
   255
 39
0.400
  6
CONTINUOUS
 10
174.60260
 20
62.70000
 30
 0
 11
174.60260
 21
65.75700
  0
LINE
  8
Engraving
 62
   255
 39
0.400
  6
CONTINUOUS
 10
174.60260
 20
65.75700
 30
 0
 11
175.79143
 21
63.54917
  0
LINE
  8
Engraving
 62
   255
 39
0.400
  6
CONTINUOUS
 10
175.79143
 20
63.54917
 30
 0
 11
176.98027
 21
65.75700
  0
LINE
  8
Engraving
 62
   255
 39
0.400
  6
CONTINUOUS
 10
176.98027
 20
65.75700
 30
 0
 11
176.98027
 21
62.70000
  0
ARC
  8
Engraving
 62
   255
 39
0.400
  6
CONTINUOUS
 10
178.79015
 20
64.83529
 30
 0
 40
0.99599
 50
28.82122
 51
181.68902
  0
LINE
  8
Engraving
 62
   255
 39
0.400
  6
CONTINUOUS
 10
177.79460
 20
64.80593
 30
 0
 11
177.79460
 21
63.65107
  0
ARC
  8
Engraving
 62
   255
 39
0.400
  6
CONTINUOUS
 10
178.81539
 20
63.65276
 30
 0
 40
1.02079
 50
180.09515
 51
338.42706
  0
LINE
  8
Engraving
 62
   255
 39
0.400
  6
CONTINUOUS
 10
182.75260
 20
65.75600
 30
 0
 11
182.75260
 21
62.69900
  0
LINE
  8
Engraving
 62
   255
 39
0.400
  6
CONTINUOUS
 10
182.75260
 20
62.69900
 30
 0
 11
184.45093
 21
62.69900
  0
LINE
  8
Engraving
 62
   255
 39
0.400
  6
CONTINUOUS
 10
185.26560
 20
62.69900
 30
 0
 11
185.26560
 21
65.75600
  0
LINE
  8
Engraving
 62
   255
 39
0.400
  6
CONTINUOUS
 10
185.26560
 20
65.75600
 30
 0
 11
186.38650
 21
65.75600
  0
ARC
  8
Engraving
 62
   255
 39
0.400
  6
CONTINUOUS
 10
186.38650
 20
64.99175
 30
 0
 40
0.76425
 50
-90.00000
 51
90.00000
  0
LINE
  8
Engraving
 62
   255
 39
0.400
  6
CONTINUOUS
 10
186.38650
 20
64.22750
 30
 0
 11
185.26560
 21
64.22750
  0
ARC
  8
Engraving
 62
   255
 39
0.400
  6
CONTINUOUS
 10
188.91015
 20
64.83429
 30
 0
 40
0.99599
 50
28.82122
 51
181.68902
  0
LINE
  8
Engraving
 62
   255
 39
0.400
  6
CONTINUOUS
 10
187.91460
 20
64.80493
 30
 0
 11
187.91460
 21
63.65007
  0
ARC
  8
Engraving
 62
   255
 39
0.400
  6
CONTINUOUS
 10
188.93539
 20
63.65176
 30
 0
 40
1.02079
 50
180.09515
 51
338.42706
  0
ARC
  8
Engraving
 62
   255
 39
0.400
  6
CONTINUOUS
 10
185.71100
 20
64.22650
 30
 0
 40
5.32693
 50
-20.53028
 51
20.53028
  0
LINE
  8
Engraving
 62
   255
 39
0.400
  6
CONTINUOUS
 10
235.00060
 20
65.75700
 30
 0
 11
235.00060
 21
62.70000
  0
LINE
  8
Engraving
 62
   255
 39
0.400
  6
CONTINUOUS
 10
235.81560
 20
62.49620
 30
 0
 11
237.10633
 21
65.92683
  0
ARC
  8
Engraving
 62
   255
 39
0.400
  6
CONTINUOUS
 10
239.00753
 20
63.71900
 30
 0
 40
1.08693
 50
180.00000
 51
360.00000
  0
LINE
  8
Engraving
 62
   255
 39
0.400
  6
CONTINUOUS
 10
240.09447
 20
63.71900
 30
 0
 11
240.09447
 21
64.73800
  0
ARC
  8
Engraving
 62
   255
 39
0.400
  6
CONTINUOUS
 10
239.00753
 20
64.73800
 30
 0
 40
1.08693
 50
0.00000
 51
180.00000
  0
LINE
  8
Engraving
 62
   255
 39
0.400
  6
CONTINUOUS
 10
237.92060
 20
64.73800
 30
 0
 11
237.92060
 21
63.71900
  0
LINE
  8
Engraving
 62
   255
 39
0.400
  6
CONTINUOUS
 10
240.90960
 20
65.07767
 30
 0
 11
241.58893
 21
65.75700
  0
LINE
  8
Engraving
 62
   255
 39
0.400
  6
CONTINUOUS
 10
241.58893
 20
65.75700
 30
 0
 11
241.58893
 21
62.70000
  0
ARC
  8
Engraving
 62
   255
 39
0.400
  6
CONTINUOUS
 10
249.90487
 20
64.22850
 30
 0
 40
5.32693
 50
159.46972
 51
200.53028
  0
LINE
  8
Engraving
 62
   255
 39
0.400
  6
CONTINUOUS
 10
245.73060
 20
64.22850
 30
 0
 11
247.42893
 21
64.22850
  0
LINE
  8
Engraving
 62
   255
 39
0.400
  6
CONTINUOUS
 10
247.76860
 20
65.75700
 30
 0
 11
245.73060
 21
65.75700
  0
LINE
  8
Engraving
 62
   255
 39
0.400
  6
CONTINUOUS
 10
245.73060
 20
65.75700
 30
 0
 11
245.73060
 21
62.70000
  0
LINE
  8
Engraving
 62
   255
 39
0.400
  6
CONTINUOUS
 10
248.58360
 20
62.70000
 30
 0
 11
248.58360
 21
65.75700
  0
LINE
  8
Engraving
 62
   255
 39
0.400
  6
CONTINUOUS
 10
248.58360
 20
65.75700
 30
 0
 11
249.77243
 21
63.54917
  0
LINE
  8
Engraving
 62
   255
 39
0.400
  6
CONTINUOUS
 10
249.77243
 20
63.54917
 30
 0
 11
250.96127
 21
65.75700
  0
LINE
  8
Engraving
 62
   255
 39
0.400
  6
CONTINUOUS
 10
250.96127
 20
65.75700
 30
 0
 11
250.96127
 21
62.70000
  0
ARC
  8
Engraving
 62
   255
 39
0.400
  6
CONTINUOUS
 10
252.77115
 20
64.83529
 30
 0
 40
0.99599
 50
28.82122
 51
181.68902
  0
LINE
  8
Engraving
 62
   255
 39
0.400
  6
CONTINUOUS
 10
251.77560
 20
64.80593
 30
 0
 11
251.77560
 21
63.65107
  0
ARC
  8
Engraving
 62
   255
 39
0.400
  6
CONTINUOUS
 10
252.79639
 20
63.65276
 30
 0
 40
1.02079
 50
180.09515
 51
338.42706
  0
LINE
  8
Engraving
 62
   255
 39
0.400
  6
CONTINUOUS
 10
256.73360
 20
65.75600
 30
 0
 11
256.73360
 21
62.69900
  0
LINE
  8
Engraving
 62
   255
 39
0.400
  6
CONTINUOUS
 10
256.73360
 20
62.69900
 30
 0
 11
256.73360
 21
64.22750
  0
LINE
  8
Engraving
 62
   255
 39
0.400
  6
CONTINUOUS
 10
256.73360
 20
64.22750
 30
 0
 11
258.77160
 21
64.22750
  0
LINE
  8
Engraving
 62
   255
 39
0.400
  6
CONTINUOUS
 10
258.77160
 20
64.22750
 30
 0
 11
258.77160
 21
62.69900
  0
LINE
  8
Engraving
 62
   255
 39
0.400
  6
CONTINUOUS
 10
258.77160
 20
62.69900
 30
 0
 11
258.77160
 21
65.75600
  0
LINE
  8
Engraving
 62
   255
 39
0.400
  6
CONTINUOUS
 10
259.58660
 20
62.69900
 30
 0
 11
259.58660
 21
65.75600
  0
LINE
  8
Engraving
 62
   255
 39
0.400
  6
CONTINUOUS
 10
259.58660
 20
65.75600
 30
 0
 11
260.70750
 21
65.75600
  0
ARC
  8
Engraving
 62
   255
 39
0.400
  6
CONTINUOUS
 10
260.70750
 20
64.99175
 30
 0
 40
0.76425
 50
-90.00000
 51
90.00000
  0
LINE
  8
Engraving
 62
   255
 39
0.400
  6
CONTINUOUS
 10
260.70750
 20
64.22750
 30
 0
 11
259.58660
 21
64.22750
  0
ARC
  8
Engraving
 62
   255
 39
0.400
  6
CONTINUOUS
 10
263.23115
 20
64.83429
 30
 0
 40
0.99599
 50
28.82122
 51
181.68902
  0
LINE
  8
Engraving
 62
   255
 39
0.400
  6
CONTINUOUS
 10
262.23560
 20
64.80493
 30
 0
 11
262.23560
 21
63.65007
  0
ARC
  8
Engraving
 62
   255
 39
0.400
  6
CONTINUOUS
 10
263.25639
 20
63.65176
 30
 0
 40
1.02079
 50
180.09515
 51
338.42706
  0
ARC
  8
Engraving
 62
   255
 39
0.400
  6
CONTINUOUS
 10
260.03200
 20
64.22650
 30
 0
 40
5.32693
 50
-20.53028
 51
20.53028
  0
LINE
  8
Engraving
 62
   255
 39
1.000
  6
CONTINUOUS
 10
13.64400
 20
23.24880
 30
 0
 11
5.01300
 21
23.24880
  0
LINE
  8
Engraving
 62
   255
 39
1.000
  6
CONTINUOUS
 10
5.01300
 20
23.24880
 30
 0
 11
11.24650
 21
26.60530
  0
LINE
  8
Engraving
 62
   255
 39
1.000
  6
CONTINUOUS
 10
11.24650
 20
26.60530
 30
 0
 11
5.01300
 21
29.96180
  0
LINE
  8
Engraving
 62
   255
 39
1.000
  6
CONTINUOUS
 10
5.01300
 20
29.96180
 30
 0
 11
13.64400
 21
29.96180
  0
LINE
  8
Engraving
 62
   255
 39
1.000
  6
CONTINUOUS
 10
5.01300
 20
32.26380
 30
 0
 11
13.64400
 21
32.26380
  0
ARC
  8
Engraving
 62
   255
 39
1.000
  6
CONTINUOUS
 10
10.76700
 20
37.63460
 30
 0
 40
3.06880
 50
270.00000
 51
450.00000
  0
LINE
  8
Engraving
 62
   255
 39
1.000
  6
CONTINUOUS
 10
10.76700
 20
40.70340
 30
 0
 11
7.89000
 21
40.70340
  0
ARC
  8
Engraving
 62
   255
 39
1.000
  6
CONTINUOUS
 10
7.89000
 20
37.63460
 30
 0
 40
3.06880
 50
90.00000
 51
270.00000
  0
LINE
  8
Engraving
 62
   255
 39
1.000
  6
CONTINUOUS
 10
7.89000
 20
34.56580
 30
 0
 11
10.76700
 21
34.56580
  0
ARC
  8
Engraving
 62
   255
 39
1.000
  6
CONTINUOUS
 10
7.17075
 20
46.17050
 30
 0
 40
2.15775
 50
0.00000
 51
180.00000
  0
LINE
  8
Engraving
 62
   255
 39
1.000
  6
CONTINUOUS
 10
5.01300
 20
46.17050
 30
 0
 11
5.01300
 21
43.00580
  0
LINE
  8
Engraving
 62
   255
 39
1.000
  6
CONTINUOUS
 10
5.01300
 20
43.00580
 30
 0
 11
13.64400
 21
43.00580
  0
LINE
  8
Engraving
 62
   255
 39
1.000
  6
CONTINUOUS
 10
13.64400
 20
43.00580
 30
 0
 11
13.64400
 21
46.65000
  0
ARC
  8
Engraving
 62
   255
 39
1.000
  6
CONTINUOUS
 10
11.48625
 20
46.65000
 30
 0
 40
2.15775
 50
0.00000
 51
180.00000
  0
LINE
  8
Engraving
 62
   255
 39
1.000
  6
CONTINUOUS
 10
9.32850
 20
46.65000
 30
 0
 11
9.32850
 21
43.00580
  0
ARC
  8
Engraving
 62
   255
 39
1.000
  6
CONTINUOUS
 10
10.76700
 20
54.12960
 30
 0
 40
3.06880
 50
270.00000
 51
450.00000
  0
LINE
  8
Engraving
 62
   255
 39
1.000
  6
CONTINUOUS
 10
10.76700
 20
57.19840
 30
 0
 11
7.89000
 21
57.19840
  0
ARC
  8
Engraving
 62
   255
 39
1.000
  6
CONTINUOUS
 10
7.89000
 20
54.12960
 30
 0
 40
3.06880
 50
90.00000
 51
270.00000
  0
LINE
  8
Engraving
 62
   255
 39
1.000
  6
CONTINUOUS
 10
7.89000
 20
51.06080
 30
 0
 11
10.76700
 21
51.06080
  0
LINE
  8
Engraving
 62
   255
 39
1.000
  6
CONTINUOUS
 10
5.01300
 20
59.49980
 30
 0
 11
13.64400
 21
65.25380
  0
LINE
  8
Engraving
 62
   255
 39
1.000
  6
CONTINUOUS
 10
13.64400
 20
59.49980
 30
 0
 11
5.01300
 21
65.25380
  0
LINE
  8
Engraving
 62
   255
 39
0.400
  6
CONTINUOUS
 10
312.06660
 20
36.72850
 30
 0
 11
313.76493
 21
36.72850
  0
LINE
  8
Engraving
 62
   255
 39
0.400
  6
CONTINUOUS
 10
314.10460
 20
38.25700
 30
 0
 11
312.06660
 21
38.25700
  0
LINE
  8
Engraving
 62
   255
 39
0.400
  6
CONTINUOUS
 10
312.06660
 20
38.25700
 30
 0
 11
312.06660
 21
35.20000
  0
LINE
  8
Engraving
 62
   255
 39
0.400
  6
CONTINUOUS
 10
314.92060
 20
35.20000
 30
 0
 11
314.92060
 21
38.25700
  0
LINE
  8
Engraving
 62
   255
 39
0.400
  6
CONTINUOUS
 10
314.92060
 20
38.25700
 30
 0
 11
316.04150
 21
38.25700
  0
ARC
  8
Engraving
 62
   255
 39
0.400
  6
CONTINUOUS
 10
316.04150
 20
37.49275
 30
 0
 40
0.76425
 50
-90.00000
 51
90.00000
  0
LINE
  8
Engraving
 62
   255
 39
0.400
  6
CONTINUOUS
 10
316.04150
 20
36.72850
 30
 0
 11
314.92060
 21
36.72850
  0
LINE
  8
Engraving
 62
   255
 39
0.400
  6
CONTINUOUS
 10
318.99720
 20
36.72850
 30
 0
 11
319.74447
 21
36.72850
  0
LINE
  8
Engraving
 62
   255
 39
0.400
  6
CONTINUOUS
 10
319.74447
 20
36.72850
 30
 0
 11
319.74447
 21
36.21900
  0
ARC
  8
Engraving
 62
   255
 39
0.400
  6
CONTINUOUS
 10
318.65753
 20
36.21900
 30
 0
 40
1.08693
 50
-180.00000
 51
0.00000
  0
LINE
  8
Engraving
 62
   255
 39
0.400
  6
CONTINUOUS
 10
317.57060
 20
36.21900
 30
 0
 11
317.57060
 21
37.23800
  0
ARC
  8
Engraving
 62
   255
 39
0.400
  6
CONTINUOUS
 10
318.61740
 20
37.26268
 30
 0
 40
1.04709
 50
31.86328
 51
181.35068
  0
LINE
  8
Engraving
 62
   255
 39
0.400
  6
CONTINUOUS
 10
320.89927
 20
36.04917
 30
 0
 11
322.59760
 21
36.04917
  0
LINE
  8
Engraving
 62
   255
 39
0.400
  6
CONTINUOUS
 10
320.55960
 20
35.20000
 30
 0
 11
321.74843
 21
38.25700
  0
LINE
  8
Engraving
 62
   255
 39
0.400
  6
CONTINUOUS
 10
321.74843
 20
38.25700
 30
 0
 11
322.93727
 21
35.20000
  0
LINE
  8
Engraving
 62
   255
 39
0.400
  6
CONTINUOUS
 10
419.29460
 20
9.47200
 30
 0
 11
419.29460
 21
12.52900
  0
LINE
  8
Engraving
 62
   255
 39
0.400
  6
CONTINUOUS
 10
419.29460
 20
12.52900
 30
 0
 11
420.48343
 21
10.32117
  0
LINE
  8
Engraving
 62
   255
 39
0.400
  6
CONTINUOUS
 10
420.48343
 20
10.32117
 30
 0
 11
421.67227
 21
12.52900
  0
LINE
  8
Engraving
 62
   255
 39
0.400
  6
CONTINUOUS
 10
421.67227
 20
12.52900
 30
 0
 11
421.67227
 21
9.47200
  0
LINE
  8
Engraving
 62
   255
 39
0.400
  6
CONTINUOUS
 10
423.91420
 20
11.00050
 30
 0
 11
424.66147
 21
11.00050
  0
LINE
  8
Engraving
 62
   255
 39
0.400
  6
CONTINUOUS
 10
424.66147
 20
11.00050
 30
 0
 11
424.66147
 21
10.49100
  0
ARC
  8
Engraving
 62
   255
 39
0.400
  6
CONTINUOUS
 10
423.57453
 20
10.49100
 30
 0
 40
1.08693
 50
-180.00000
 51
0.00000
  0
LINE
  8
Engraving
 62
   255
 39
0.400
  6
CONTINUOUS
 10
422.48760
 20
10.49100
 30
 0
 11
422.48760
 21
11.51000
  0
ARC
  8
Engraving
 62
   255
 39
0.400
  6
CONTINUOUS
 10
423.53440
 20
11.53468
 30
 0
 40
1.04709
 50
31.86328
 51
181.35068
  0
LINE
  8
Engraving
 62
   255
 39
0.400
  6
CONTINUOUS
 10
425.47660
 20
9.47200
 30
 0
 11
425.47660
 21
12.52900
  0
LINE
  8
Engraving
 62
   255
 39
0.400
  6
CONTINUOUS
 10
425.47660
 20
12.52900
 30
 0
 11
426.66543
 21
10.32117
  0
LINE
  8
Engraving
 62
   255
 39
0.400
  6
CONTINUOUS
 10
426.66543
 20
10.32117
 30
 0
 11
427.85427
 21
12.52900
  0
LINE
  8
Engraving
 62
   255
 39
0.400
  6
CONTINUOUS
 10
427.85427
 20
12.52900
 30
 0
 11
427.85427
 21
9.47200
  0
LINE
  8
Engraving
 62
   255
 39
0.400
  6
CONTINUOUS
 10
428.66860
 20
12.52900
 30
 0
 11
430.70660
 21
12.52900
  0
LINE
  8
Engraving
 62
   255
 39
0.400
  6
CONTINUOUS
 10
430.70660
 20
12.52900
 30
 0
 11
429.68760
 21
12.52900
  0
LINE
  8
Engraving
 62
   255
 39
0.400
  6
CONTINUOUS
 10
429.68760
 20
12.52900
 30
 0
 11
429.68760
 21
9.47200
  0
LINE
  8
Engraving
 62
   255
 39
0.400
  6
CONTINUOUS
 10
421.12860
 20
77.00050
 30
 0
 11
422.82693
 21
77.00050
  0
LINE
  8
Engraving
 62
   255
 39
0.400
  6
CONTINUOUS
 10
423.16660
 20
78.52900
 30
 0
 11
421.12860
 21
78.52900
  0
LINE
  8
Engraving
 62
   255
 39
0.400
  6
CONTINUOUS
 10
421.12860
 20
78.52900
 30
 0
 11
421.12860
 21
75.47200
  0
LINE
  8
Engraving
 62
   255
 39
0.400
  6
CONTINUOUS
 10
421.12860
 20
75.47200
 30
 0
 11
423.16660
 21
75.47200
  0
LINE
  8
Engraving
 62
   255
 39
0.400
  6
CONTINUOUS
 10
423.98260
 20
78.52900
 30
 0
 11
426.02060
 21
78.52900
  0
LINE
  8
Engraving
 62
   255
 39
0.400
  6
CONTINUOUS
 10
426.02060
 20
78.52900
 30
 0
 11
425.00160
 21
78.52900
  0
LINE
  8
Engraving
 62
   255
 39
0.400
  6
CONTINUOUS
 10
425.00160
 20
78.52900
 30
 0
 11
425.00160
 21
75.47200
  0
LINE
  8
Engraving
 62
   255
 39
0.400
  6
CONTINUOUS
 10
426.83560
 20
78.52900
 30
 0
 11
426.83560
 21
75.47200
  0
LINE
  8
Engraving
 62
   255
 39
0.400
  6
CONTINUOUS
 10
426.83560
 20
75.47200
 30
 0
 11
426.83560
 21
77.00050
  0
LINE
  8
Engraving
 62
   255
 39
0.400
  6
CONTINUOUS
 10
426.83560
 20
77.00050
 30
 0
 11
428.87360
 21
77.00050
  0
LINE
  8
Engraving
 62
   255
 39
0.400
  6
CONTINUOUS
 10
428.87360
 20
77.00050
 30
 0
 11
428.87360
 21
75.47200
  0
LINE
  8
Engraving
 62
   255
 39
0.400
  6
CONTINUOUS
 10
428.87360
 20
75.47200
 30
 0
 11
428.87360
 21
78.52900
  0
ARC
  8
Engraving
 62
   255
 39
0.400
  6
CONTINUOUS
 10
335.91474
 20
37.46924
 30
 0
 40
0.80598
 50
36.73449
 51
77.79505
  0
ARC
  8
Engraving
 62
   255
 39
0.400
  6
CONTINUOUS
 10
335.67593
 20
36.38270
 30
 0
 40
1.91845
 50
77.68434
 51
106.40648
  0
ARC
  8
Engraving
 62
   255
 39
0.400
  6
CONTINUOUS
 10
335.39580
 20
37.35390
 30
 0
 40
0.90769
 50
106.75938
 51
144.31597
  0
ARC
  8
Engraving
 62
   255
 39
0.400
  6
CONTINUOUS
 10
335.16338
 20
37.52098
 30
 0
 40
0.62145
 50
144.32844
 51
251.30934
  0
LINE
  8
Engraving
 62
   255
 39
0.400
  6
CONTINUOUS
 10
334.96423
 20
36.93230
 30
 0
 11
336.15307
 21
36.52470
  0
ARC
  8
Engraving
 62
   255
 39
0.400
  6
CONTINUOUS
 10
335.95392
 20
35.93602
 30
 0
 40
0.62145
 50
-35.67156
 51
71.30934
  0
ARC
  8
Engraving
 62
   255
 39
0.400
  6
CONTINUOUS
 10
335.72150
 20
36.10310
 30
 0
 40
0.90769
 50
286.75938
 51
324.31597
  0
ARC
  8
Engraving
 62
   255
 39
0.400
  6
CONTINUOUS
 10
335.44137
 20
37.07430
 30
 0
 40
1.91845
 50
257.68434
 51
286.40648
  0
ARC
  8
Engraving
 62
   255
 39
0.400
  6
CONTINUOUS
 10
335.20256
 20
35.98776
 30
 0
 40
0.80598
 50
216.73449
 51
257.79505
  0
LINE
  8
Engraving
 62
   255
 39
0.400
  6
CONTINUOUS
 10
337.37660
 20
35.20000
 30
 0
 11
337.37660
 21
38.25700
  0
LINE
  8
Engraving
 62
   255
 39
0.400
  6
CONTINUOUS
 10
337.37660
 20
38.25700
 30
 0
 11
338.56543
 21
36.04917
  0
LINE
  8
Engraving
 62
   255
 39
0.400
  6
CONTINUOUS
 10
338.56543
 20
36.04917
 30
 0
 11
339.75427
 21
38.25700
  0
LINE
  8
Engraving
 62
   255
 39
0.400
  6
CONTINUOUS
 10
339.75427
 20
38.25700
 30
 0
 11
339.75427
 21
35.20000
  0
LINE
  8
Engraving
 62
   255
 39
0.400
  6
CONTINUOUS
 10
340.90827
 20
36.04917
 30
 0
 11
342.60660
 21
36.04917
  0
LINE
  8
Engraving
 62
   255
 39
0.400
  6
CONTINUOUS
 10
340.56860
 20
35.20000
 30
 0
 11
341.75743
 21
38.25700
  0
LINE
  8
Engraving
 62
   255
 39
0.400
  6
CONTINUOUS
 10
341.75743
 20
38.25700
 30
 0
 11
342.94627
 21
35.20000
  0
LINE
  8
Engraving
 62
   255
 39
0.400
  6
CONTINUOUS
 10
343.79457
 20
37.95130
 30
 0
 11
343.99837
 21
38.12113
  0
ARC
  8
Engraving
 62
   255
 39
0.400
  6
CONTINUOUS
 10
344.54905
 20
37.48299
 30
 0
 40
0.84290
 50
-40.79241
 51
130.79241
  0
LINE
  8
Engraving
 62
   255
 39
0.400
  6
CONTINUOUS
 10
345.18720
 20
36.93230
 30
 0
 11
343.76060
 21
35.20000
  0
LINE
  8
Engraving
 62
   255
 39
0.400
  6
CONTINUOUS
 10
343.76060
 20
35.20000
 30
 0
 11
345.45893
 21
35.20000
  0
LINE
  8
Engraving
 62
   255
 39
0.400
  6
CONTINUOUS
 10
337.61620
 20
11.72850
 30
 0
 11
338.36347
 21
11.72850
  0
LINE
  8
Engraving
 62
   255
 39
0.400
  6
CONTINUOUS
 10
338.36347
 20
11.72850
 30
 0
 11
338.36347
 21
11.21900
  0
ARC
  8
Engraving
 62
   255
 39
0.400
  6
CONTINUOUS
 10
337.27653
 20
11.21900
 30
 0
 40
1.08693
 50
-180.00000
 51
0.00000
  0
LINE
  8
Engraving
 62
   255
 39
0.400
  6
CONTINUOUS
 10
336.18960
 20
11.21900
 30
 0
 11
336.18960
 21
12.23800
  0
ARC
  8
Engraving
 62
   255
 39
0.400
  6
CONTINUOUS
 10
337.23640
 20
12.26268
 30
 0
 40
1.04709
 50
31.86328
 51
181.35068
  0
LINE
  8
Engraving
 62
   255
 39
0.400
  6
CONTINUOUS
 10
339.17960
 20
10.20000
 30
 0
 11
339.17960
 21
13.25700
  0
LINE
  8
Engraving
 62
   255
 39
0.400
  6
CONTINUOUS
 10
339.17960
 20
13.25700
 30
 0
 11
340.30050
 21
13.25700
  0
ARC
  8
Engraving
 62
   255
 39
0.400
  6
CONTINUOUS
 10
340.30050
 20
12.49275
 30
 0
 40
0.76425
 50
-90.00000
 51
90.00000
  0
LINE
  8
Engraving
 62
   255
 39
0.400
  6
CONTINUOUS
 10
340.30050
 20
11.72850
 30
 0
 11
339.17960
 21
11.72850
  0
ARC
  8
Engraving
 62
   255
 39
0.400
  6
CONTINUOUS
 10
343.15274
 20
12.46924
 30
 0
 40
0.80598
 50
36.73449
 51
77.79505
  0
ARC
  8
Engraving
 62
   255
 39
0.400
  6
CONTINUOUS
 10
342.91393
 20
11.38270
 30
 0
 40
1.91845
 50
77.68434
 51
106.40648
  0
ARC
  8
Engraving
 62
   255
 39
0.400
  6
CONTINUOUS
 10
342.63380
 20
12.35390
 30
 0
 40
0.90769
 50
106.75938
 51
144.31597
  0
ARC
  8
Engraving
 62
   255
 39
0.400
  6
CONTINUOUS
 10
342.40138
 20
12.52098
 30
 0
 40
0.62145
 50
144.32844
 51
251.30934
  0
LINE
  8
Engraving
 62
   255
 39
0.400
  6
CONTINUOUS
 10
342.20223
 20
11.93230
 30
 0
 11
343.39107
 21
11.52470
  0
ARC
  8
Engraving
 62
   255
 39
0.400
  6
CONTINUOUS
 10
343.19192
 20
10.93602
 30
 0
 40
0.62145
 50
-35.67156
 51
71.30934
  0
ARC
  8
Engraving
 62
   255
 39
0.400
  6
CONTINUOUS
 10
342.95950
 20
11.10310
 30
 0
 40
0.90769
 50
286.75938
 51
324.31597
  0
ARC
  8
Engraving
 62
   255
 39
0.400
  6
CONTINUOUS
 10
342.67937
 20
12.07430
 30
 0
 40
1.91845
 50
257.68434
 51
286.40648
  0
ARC
  8
Engraving
 62
   255
 39
0.400
  6
CONTINUOUS
 10
342.44056
 20
10.98776
 30
 0
 40
0.80598
 50
216.73449
 51
257.79505
  0
ARC
  8
Engraving
 62
   255
 39
0.400
  6
CONTINUOUS
 10
336.42474
 20
62.46924
 30
 0
 40
0.80598
 50
36.73449
 51
77.79505
  0
ARC
  8
Engraving
 62
   255
 39
0.400
  6
CONTINUOUS
 10
336.18593
 20
61.38270
 30
 0
 40
1.91845
 50
77.68434
 51
106.40648
  0
ARC
  8
Engraving
 62
   255
 39
0.400
  6
CONTINUOUS
 10
335.90580
 20
62.35390
 30
 0
 40
0.90769
 50
106.75938
 51
144.31597
  0
ARC
  8
Engraving
 62
   255
 39
0.400
  6
CONTINUOUS
 10
335.67338
 20
62.52098
 30
 0
 40
0.62145
 50
144.32844
 51
251.30934
  0
LINE
  8
Engraving
 62
   255
 39
0.400
  6
CONTINUOUS
 10
335.47423
 20
61.93230
 30
 0
 11
336.66307
 21
61.52470
  0
ARC
  8
Engraving
 62
   255
 39
0.400
  6
CONTINUOUS
 10
336.46392
 20
60.93602
 30
 0
 40
0.62145
 50
-35.67156
 51
71.30934
  0
ARC
  8
Engraving
 62
   255
 39
0.400
  6
CONTINUOUS
 10
336.23150
 20
61.10310
 30
 0
 40
0.90769
 50
286.75938
 51
324.31597
  0
ARC
  8
Engraving
 62
   255
 39
0.400
  6
CONTINUOUS
 10
335.95137
 20
62.07430
 30
 0
 40
1.91845
 50
257.68434
 51
286.40648
  0
ARC
  8
Engraving
 62
   255
 39
0.400
  6
CONTINUOUS
 10
335.71256
 20
60.98776
 30
 0
 40
0.80598
 50
216.73449
 51
257.79505
  0
LINE
  8
Engraving
 62
   255
 39
0.400
  6
CONTINUOUS
 10
337.88660
 20
60.20000
 30
 0
 11
337.88660
 21
63.25700
  0
LINE
  8
Engraving
 62
   255
 39
0.400
  6
CONTINUOUS
 10
337.88660
 20
63.25700
 30
 0
 11
339.07543
 21
61.04917
  0
LINE
  8
Engraving
 62
   255
 39
0.400
  6
CONTINUOUS
 10
339.07543
 20
61.04917
 30
 0
 11
340.26427
 21
63.25700
  0
LINE
  8
Engraving
 62
   255
 39
0.400
  6
CONTINUOUS
 10
340.26427
 20
63.25700
 30
 0
 11
340.26427
 21
60.20000
  0
LINE
  8
Engraving
 62
   255
 39
0.400
  6
CONTINUOUS
 10
341.41827
 20
61.04917
 30
 0
 11
343.11660
 21
61.04917
  0
LINE
  8
Engraving
 62
   255
 39
0.400
  6
CONTINUOUS
 10
341.07860
 20
60.20000
 30
 0
 11
342.26743
 21
63.25700
  0
LINE
  8
Engraving
 62
   255
 39
0.400
  6
CONTINUOUS
 10
342.26743
 20
63.25700
 30
 0
 11
343.45627
 21
60.20000
  0
LINE
  8
Engraving
 62
   255
 39
0.400
  6
CONTINUOUS
 10
344.27060
 20
62.57767
 30
 0
 11
344.94993
 21
63.25700
  0
LINE
  8
Engraving
 62
   255
 39
0.400
  6
CONTINUOUS
 10
344.94993
 20
63.25700
 30
 0
 11
344.94993
 21
60.20000
  0
ARC
  8
Engraving
 62
   255
 39
0.400
  6
CONTINUOUS
 10
359.35274
 20
19.46924
 30
 0
 40
0.80598
 50
36.73449
 51
77.79505
  0
ARC
  8
Engraving
 62
   255
 39
0.400
  6
CONTINUOUS
 10
359.11393
 20
18.38270
 30
 0
 40
1.91845
 50
77.68434
 51
106.40648
  0
ARC
  8
Engraving
 62
   255
 39
0.400
  6
CONTINUOUS
 10
358.83380
 20
19.35390
 30
 0
 40
0.90769
 50
106.75938
 51
144.31597
  0
ARC
  8
Engraving
 62
   255
 39
0.400
  6
CONTINUOUS
 10
358.60138
 20
19.52098
 30
 0
 40
0.62145
 50
144.32844
 51
251.30934
  0
LINE
  8
Engraving
 62
   255
 39
0.400
  6
CONTINUOUS
 10
358.40223
 20
18.93230
 30
 0
 11
359.59107
 21
18.52470
  0
ARC
  8
Engraving
 62
   255
 39
0.400
  6
CONTINUOUS
 10
359.39192
 20
17.93602
 30
 0
 40
0.62145
 50
-35.67156
 51
71.30934
  0
ARC
  8
Engraving
 62
   255
 39
0.400
  6
CONTINUOUS
 10
359.15950
 20
18.10310
 30
 0
 40
0.90769
 50
286.75938
 51
324.31597
  0
ARC
  8
Engraving
 62
   255
 39
0.400
  6
CONTINUOUS
 10
358.87937
 20
19.07430
 30
 0
 40
1.91845
 50
257.68434
 51
286.40648
  0
ARC
  8
Engraving
 62
   255
 39
0.400
  6
CONTINUOUS
 10
358.64056
 20
17.98776
 30
 0
 40
0.80598
 50
216.73449
 51
257.79505
  0
LINE
  8
Engraving
 62
   255
 39
0.400
  6
CONTINUOUS
 10
360.81460
 20
18.72850
 30
 0
 11
362.51293
 21
18.72850
  0
LINE
  8
Engraving
 62
   255
 39
0.400
  6
CONTINUOUS
 10
362.85260
 20
20.25700
 30
 0
 11
360.81460
 21
20.25700
  0
LINE
  8
Engraving
 62
   255
 39
0.400
  6
CONTINUOUS
 10
360.81460
 20
20.25700
 30
 0
 11
360.81460
 21
17.20000
  0
LINE
  8
Engraving
 62
   255
 39
0.400
  6
CONTINUOUS
 10
360.81460
 20
17.20000
 30
 0
 11
362.85260
 21
17.20000
  0
LINE
  8
Engraving
 62
   255
 39
0.400
  6
CONTINUOUS
 10
363.66860
 20
17.20000
 30
 0
 11
363.66860
 21
20.25700
  0
LINE
  8
Engraving
 62
   255
 39
0.400
  6
CONTINUOUS
 10
363.66860
 20
20.25700
 30
 0
 11
364.78950
 21
20.25700
  0
ARC
  8
Engraving
 62
   255
 39
0.400
  6
CONTINUOUS
 10
364.78950
 20
19.49275
 30
 0
 40
0.76425
 50
-90.00000
 51
90.00000
  0
LINE
  8
Engraving
 62
   255
 39
0.400
  6
CONTINUOUS
 10
364.78950
 20
18.72850
 30
 0
 11
363.66860
 21
18.72850
  0
LINE
  8
Engraving
 62
   255
 39
0.400
  6
CONTINUOUS
 10
363.66860
 20
18.72850
 30
 0
 11
364.85743
 21
18.72850
  0
LINE
  8
Engraving
 62
   255
 39
0.400
  6
CONTINUOUS
 10
364.85743
 20
18.72850
 30
 0
 11
365.53677
 21
17.20000
  0
LINE
  8
Engraving
 62
   255
 39
0.400
  6
CONTINUOUS
 10
366.31760
 20
20.25700
 30
 0
 11
366.31760
 21
17.20000
  0
LINE
  8
Engraving
 62
   255
 39
0.400
  6
CONTINUOUS
 10
367.47227
 20
18.04917
 30
 0
 11
369.17060
 21
18.04917
  0
LINE
  8
Engraving
 62
   255
 39
0.400
  6
CONTINUOUS
 10
367.13260
 20
17.20000
 30
 0
 11
368.32143
 21
20.25700
  0
LINE
  8
Engraving
 62
   255
 39
0.400
  6
CONTINUOUS
 10
368.32143
 20
20.25700
 30
 0
 11
369.51027
 21
17.20000
  0
LINE
  8
Engraving
 62
   255
 39
0.400
  6
CONTINUOUS
 10
370.32460
 20
20.25700
 30
 0
 11
370.32460
 21
17.20000
  0
LINE
  8
Engraving
 62
   255
 39
0.400
  6
CONTINUOUS
 10
370.32460
 20
17.20000
 30
 0
 11
372.02293
 21
17.20000
  0
ARC
  8
Engraving
 62
   255
 39
0.400
  6
CONTINUOUS
 10
391.86574
 20
49.46924
 30
 0
 40
0.80598
 50
36.73449
 51
77.79505
  0
ARC
  8
Engraving
 62
   255
 39
0.400
  6
CONTINUOUS
 10
391.62693
 20
48.38270
 30
 0
 40
1.91845
 50
77.68434
 51
106.40648
  0
ARC
  8
Engraving
 62
   255
 39
0.400
  6
CONTINUOUS
 10
391.34680
 20
49.35390
 30
 0
 40
0.90769
 50
106.75938
 51
144.31597
  0
ARC
  8
Engraving
 62
   255
 39
0.400
  6
CONTINUOUS
 10
391.11438
 20
49.52098
 30
 0
 40
0.62145
 50
144.32844
 51
251.30934
  0
LINE
  8
Engraving
 62
   255
 39
0.400
  6
CONTINUOUS
 10
390.91523
 20
48.93230
 30
 0
 11
392.10407
 21
48.52470
  0
ARC
  8
Engraving
 62
   255
 39
0.400
  6
CONTINUOUS
 10
391.90492
 20
47.93602
 30
 0
 40
0.62145
 50
-35.67156
 51
71.30934
  0
ARC
  8
Engraving
 62
   255
 39
0.400
  6
CONTINUOUS
 10
391.67250
 20
48.10310
 30
 0
 40
0.90769
 50
286.75938
 51
324.31597
  0
ARC
  8
Engraving
 62
   255
 39
0.400
  6
CONTINUOUS
 10
391.39237
 20
49.07430
 30
 0
 40
1.91845
 50
257.68434
 51
286.40648
  0
ARC
  8
Engraving
 62
   255
 39
0.400
  6
CONTINUOUS
 10
391.15356
 20
47.98776
 30
 0
 40
0.80598
 50
216.73449
 51
257.79505
  0
LINE
  8
Engraving
 62
   255
 39
0.400
  6
CONTINUOUS
 10
393.32760
 20
48.72850
 30
 0
 11
395.02593
 21
48.72850
  0
LINE
  8
Engraving
 62
   255
 39
0.400
  6
CONTINUOUS
 10
395.36560
 20
50.25700
 30
 0
 11
393.32760
 21
50.25700
  0
LINE
  8
Engraving
 62
   255
 39
0.400
  6
CONTINUOUS
 10
393.32760
 20
50.25700
 30
 0
 11
393.32760
 21
47.20000
  0
LINE
  8
Engraving
 62
   255
 39
0.400
  6
CONTINUOUS
 10
396.18060
 20
47.20000
 30
 0
 11
396.18060
 21
50.25700
  0
LINE
  8
Engraving
 62
   255
 39
0.400
  6
CONTINUOUS
 10
396.18060
 20
50.25700
 30
 0
 11
397.30150
 21
50.25700
  0
ARC
  8
Engraving
 62
   255
 39
0.400
  6
CONTINUOUS
 10
397.30150
 20
49.49275
 30
 0
 40
0.76425
 50
-90.00000
 51
90.00000
  0
LINE
  8
Engraving
 62
   255
 39
0.400
  6
CONTINUOUS
 10
397.30150
 20
48.72850
 30
 0
 11
396.18060
 21
48.72850
  0
LINE
  8
Engraving
 62
   255
 39
0.400
  6
CONTINUOUS
 10
398.82960
 20
49.57767
 30
 0
 11
399.50893
 21
50.25700
  0
LINE
  8
Engraving
 62
   255
 39
0.400
  6
CONTINUOUS
 10
399.50893
 20
50.25700
 30
 0
 11
399.50893
 21
47.20000
  0
ARC
  8
Engraving
 62
   255
 39
0.400
  6
CONTINUOUS
 10
391.35674
 20
19.46924
 30
 0
 40
0.80598
 50
36.73449
 51
77.79505
  0
ARC
  8
Engraving
 62
   255
 39
0.400
  6
CONTINUOUS
 10
391.11793
 20
18.38270
 30
 0
 40
1.91845
 50
77.68434
 51
106.40648
  0
ARC
  8
Engraving
 62
   255
 39
0.400
  6
CONTINUOUS
 10
390.83780
 20
19.35390
 30
 0
 40
0.90769
 50
106.75938
 51
144.31597
  0
ARC
  8
Engraving
 62
   255
 39
0.400
  6
CONTINUOUS
 10
390.60538
 20
19.52098
 30
 0
 40
0.62145
 50
144.32844
 51
251.30934
  0
LINE
  8
Engraving
 62
   255
 39
0.400
  6
CONTINUOUS
 10
390.40623
 20
18.93230
 30
 0
 11
391.59507
 21
18.52470
  0
ARC
  8
Engraving
 62
   255
 39
0.400
  6
CONTINUOUS
 10
391.39592
 20
17.93602
 30
 0
 40
0.62145
 50
-35.67156
 51
71.30934
  0
ARC
  8
Engraving
 62
   255
 39
0.400
  6
CONTINUOUS
 10
391.16350
 20
18.10310
 30
 0
 40
0.90769
 50
286.75938
 51
324.31597
  0
ARC
  8
Engraving
 62
   255
 39
0.400
  6
CONTINUOUS
 10
390.88337
 20
19.07430
 30
 0
 40
1.91845
 50
257.68434
 51
286.40648
  0
ARC
  8
Engraving
 62
   255
 39
0.400
  6
CONTINUOUS
 10
390.64456
 20
17.98776
 30
 0
 40
0.80598
 50
216.73449
 51
257.79505
  0
LINE
  8
Engraving
 62
   255
 39
0.400
  6
CONTINUOUS
 10
392.81860
 20
18.72850
 30
 0
 11
394.51693
 21
18.72850
  0
LINE
  8
Engraving
 62
   255
 39
0.400
  6
CONTINUOUS
 10
394.85660
 20
20.25700
 30
 0
 11
392.81860
 21
20.25700
  0
LINE
  8
Engraving
 62
   255
 39
0.400
  6
CONTINUOUS
 10
392.81860
 20
20.25700
 30
 0
 11
392.81860
 21
17.20000
  0
LINE
  8
Engraving
 62
   255
 39
0.400
  6
CONTINUOUS
 10
395.67160
 20
17.20000
 30
 0
 11
395.67160
 21
20.25700
  0
LINE
  8
Engraving
 62
   255
 39
0.400
  6
CONTINUOUS
 10
395.67160
 20
20.25700
 30
 0
 11
396.79250
 21
20.25700
  0
ARC
  8
Engraving
 62
   255
 39
0.400
  6
CONTINUOUS
 10
396.79250
 20
19.49275
 30
 0
 40
0.76425
 50
-90.00000
 51
90.00000
  0
LINE
  8
Engraving
 62
   255
 39
0.400
  6
CONTINUOUS
 10
396.79250
 20
18.72850
 30
 0
 11
395.67160
 21
18.72850
  0
LINE
  8
Engraving
 62
   255
 39
0.400
  6
CONTINUOUS
 10
398.35457
 20
19.95130
 30
 0
 11
398.55837
 21
20.12113
  0
ARC
  8
Engraving
 62
   255
 39
0.400
  6
CONTINUOUS
 10
399.10905
 20
19.48299
 30
 0
 40
0.84290
 50
-40.79241
 51
130.79241
  0
LINE
  8
Engraving
 62
   255
 39
0.400
  6
CONTINUOUS
 10
399.74720
 20
18.93230
 30
 0
 11
398.32060
 21
17.20000
  0
LINE
  8
Engraving
 62
   255
 39
0.400
  6
CONTINUOUS
 10
398.32060
 20
17.20000
 30
 0
 11
400.01893
 21
17.20000
  0
LINE
  8
Engraving
 62
   255
 39
0.400
  6
CONTINUOUS
 10
310.91160
 20
10.20000
 30
 0
 11
310.91160
 21
13.25700
  0
LINE
  8
Engraving
 62
   255
 39
0.400
  6
CONTINUOUS
 10
310.91160
 20
13.25700
 30
 0
 11
312.03250
 21
13.25700
  0
ARC
  8
Engraving
 62
   255
 39
0.400
  6
CONTINUOUS
 10
312.03250
 20
12.49275
 30
 0
 40
0.76425
 50
-90.00000
 51
90.00000
  0
LINE
  8
Engraving
 62
   255
 39
0.400
  6
CONTINUOUS
 10
312.03250
 20
11.72850
 30
 0
 11
310.91160
 21
11.72850
  0
LINE
  8
Engraving
 62
   255
 39
0.400
  6
CONTINUOUS
 10
310.91160
 20
11.72850
 30
 0
 11
312.10043
 21
11.72850
  0
LINE
  8
Engraving
 62
   255
 39
0.400
  6
CONTINUOUS
 10
312.10043
 20
11.72850
 30
 0
 11
312.77977
 21
10.20000
  0
LINE
  8
Engraving
 62
   255
 39
0.400
  6
CONTINUOUS
 10
313.56160
 20
11.72850
 30
 0
 11
315.25993
 21
11.72850
  0
LINE
  8
Engraving
 62
   255
 39
0.400
  6
CONTINUOUS
 10
315.59960
 20
13.25700
 30
 0
 11
313.56160
 21
13.25700
  0
LINE
  8
Engraving
 62
   255
 39
0.400
  6
CONTINUOUS
 10
313.56160
 20
13.25700
 30
 0
 11
313.56160
 21
10.20000
  0
LINE
  8
Engraving
 62
   255
 39
0.400
  6
CONTINUOUS
 10
313.56160
 20
10.20000
 30
 0
 11
315.59960
 21
10.20000
  0
ARC
  8
Engraving
 62
   255
 39
0.400
  6
CONTINUOUS
 10
317.73974
 20
12.46924
 30
 0
 40
0.80598
 50
36.73449
 51
77.79505
  0
ARC
  8
Engraving
 62
   255
 39
0.400
  6
CONTINUOUS
 10
317.50093
 20
11.38270
 30
 0
 40
1.91845
 50
77.68434
 51
106.40648
  0
ARC
  8
Engraving
 62
   255
 39
0.400
  6
CONTINUOUS
 10
317.22080
 20
12.35390
 30
 0
 40
0.90769
 50
106.75938
 51
144.31597
  0
ARC
  8
Engraving
 62
   255
 39
0.400
  6
CONTINUOUS
 10
316.98838
 20
12.52098
 30
 0
 40
0.62145
 50
144.32844
 51
251.30934
  0
LINE
  8
Engraving
 62
   255
 39
0.400
  6
CONTINUOUS
 10
316.78923
 20
11.93230
 30
 0
 11
317.97807
 21
11.52470
  0
ARC
  8
Engraving
 62
   255
 39
0.400
  6
CONTINUOUS
 10
317.77892
 20
10.93602
 30
 0
 40
0.62145
 50
-35.67156
 51
71.30934
  0
ARC
  8
Engraving
 62
   255
 39
0.400
  6
CONTINUOUS
 10
317.54650
 20
11.10310
 30
 0
 40
0.90769
 50
286.75938
 51
324.31597
  0
ARC
  8
Engraving
 62
   255
 39
0.400
  6
CONTINUOUS
 10
317.26637
 20
12.07430
 30
 0
 40
1.91845
 50
257.68434
 51
286.40648
  0
ARC
  8
Engraving
 62
   255
 39
0.400
  6
CONTINUOUS
 10
317.02756
 20
10.98776
 30
 0
 40
0.80598
 50
216.73449
 51
257.79505
  0
LINE
  8
Engraving
 62
   255
 39
0.400
  6
CONTINUOUS
 10
319.20060
 20
11.72850
 30
 0
 11
320.89893
 21
11.72850
  0
LINE
  8
Engraving
 62
   255
 39
0.400
  6
CONTINUOUS
 10
321.23860
 20
13.25700
 30
 0
 11
319.20060
 21
13.25700
  0
LINE
  8
Engraving
 62
   255
 39
0.400
  6
CONTINUOUS
 10
319.20060
 20
13.25700
 30
 0
 11
319.20060
 21
10.20000
  0
LINE
  8
Engraving
 62
   255
 39
0.400
  6
CONTINUOUS
 10
319.20060
 20
10.20000
 30
 0
 11
321.23860
 21
10.20000
  0
LINE
  8
Engraving
 62
   255
 39
0.400
  6
CONTINUOUS
 10
322.05360
 20
13.25700
 30
 0
 11
324.09160
 21
13.25700
  0
LINE
  8
Engraving
 62
   255
 39
0.400
  6
CONTINUOUS
 10
324.09160
 20
13.25700
 30
 0
 11
323.07260
 21
13.25700
  0
LINE
  8
Engraving
 62
   255
 39
0.400
  6
CONTINUOUS
 10
323.07260
 20
13.25700
 30
 0
 11
323.07260
 21
10.20000
  0
LINE
  8
Engraving
 62
   255
 39
0.400
  6
CONTINUOUS
 10
311.79460
 20
60.20000
 30
 0
 11
311.79460
 21
63.25700
  0
LINE
  8
Engraving
 62
   255
 39
0.400
  6
CONTINUOUS
 10
311.79460
 20
63.25700
 30
 0
 11
312.98343
 21
61.04917
  0
LINE
  8
Engraving
 62
   255
 39
0.400
  6
CONTINUOUS
 10
312.98343
 20
61.04917
 30
 0
 11
314.17227
 21
63.25700
  0
LINE
  8
Engraving
 62
   255
 39
0.400
  6
CONTINUOUS
 10
314.17227
 20
63.25700
 30
 0
 11
314.17227
 21
60.20000
  0
LINE
  8
Engraving
 62
   255
 39
0.400
  6
CONTINUOUS
 10
316.41420
 20
61.72850
 30
 0
 11
317.16147
 21
61.72850
  0
LINE
  8
Engraving
 62
   255
 39
0.400
  6
CONTINUOUS
 10
317.16147
 20
61.72850
 30
 0
 11
317.16147
 21
61.21900
  0
ARC
  8
Engraving
 62
   255
 39
0.400
  6
CONTINUOUS
 10
316.07453
 20
61.21900
 30
 0
 40
1.08693
 50
-180.00000
 51
0.00000
  0
LINE
  8
Engraving
 62
   255
 39
0.400
  6
CONTINUOUS
 10
314.98760
 20
61.21900
 30
 0
 11
314.98760
 21
62.23800
  0
ARC
  8
Engraving
 62
   255
 39
0.400
  6
CONTINUOUS
 10
316.03440
 20
62.26268
 30
 0
 40
1.04709
 50
31.86328
 51
181.35068
  0
LINE
  8
Engraving
 62
   255
 39
0.400
  6
CONTINUOUS
 10
317.97660
 20
60.20000
 30
 0
 11
317.97660
 21
63.25700
  0
LINE
  8
Engraving
 62
   255
 39
0.400
  6
CONTINUOUS
 10
317.97660
 20
63.25700
 30
 0
 11
319.16543
 21
61.04917
  0
LINE
  8
Engraving
 62
   255
 39
0.400
  6
CONTINUOUS
 10
319.16543
 20
61.04917
 30
 0
 11
320.35427
 21
63.25700
  0
LINE
  8
Engraving
 62
   255
 39
0.400
  6
CONTINUOUS
 10
320.35427
 20
63.25700
 30
 0
 11
320.35427
 21
60.20000
  0
LINE
  8
Engraving
 62
   255
 39
0.400
  6
CONTINUOUS
 10
321.16860
 20
63.25700
 30
 0
 11
323.20660
 21
63.25700
  0
LINE
  8
Engraving
 62
   255
 39
0.400
  6
CONTINUOUS
 10
323.20660
 20
63.25700
 30
 0
 11
322.18760
 21
63.25700
  0
LINE
  8
Engraving
 62
   255
 39
0.400
  6
CONTINUOUS
 10
322.18760
 20
63.25700
 30
 0
 11
322.18760
 21
60.20000
  0
CIRCLE
  8
Contour
 62
   7
 39
0.100
  6
CONTINUOUS
 10
36.40000
 20
14.50000
 30
 0
 40
2.75000
  0
CIRCLE
  8
Contour
 62
   7
 39
0.100
  6
CONTINUOUS
 10
36.40000
 20
74.50000
 30
 0
 40
2.75000
  0
CIRCLE
  8
Contour
 62
   7
 39
0.100
  6
CONTINUOUS
 10
446.60000
 20
74.50000
 30
 0
 40
2.75000
  0
CIRCLE
  8
Contour
 62
   7
 39
0.100
  6
CONTINUOUS
 10
446.60000
 20
14.50000
 30
 0
 40
2.75000
  0
ARC
  8
Contour
 62
   7
 39
0.100
  6
CONTINUOUS
 10
156.00000
 20
13.25000
 30
 0
 40
1.00000
 50
180.00000
 51
270.00000
  0
LINE
  8
Contour
 62
   7
 39
0.100
  6
CONTINUOUS
 10
156.00000
 20
12.25000
 30
 0
 11
296.50000
 21
12.25000
  0
ARC
  8
Contour
 62
   7
 39
0.100
  6
CONTINUOUS
 10
296.50000
 20
13.25000
 30
 0
 40
1.00000
 50
270.00000
 51
360.00000
  0
LINE
  8
Contour
 62
   7
 39
0.100
  6
CONTINUOUS
 10
297.50000
 20
13.25000
 30
 0
 11
297.50000
 21
58.25000
  0
ARC
  8
Contour
 62
   7
 39
0.100
  6
CONTINUOUS
 10
296.50000
 20
58.25000
 30
 0
 40
1.00000
 50
0.00000
 51
90.00000
  0
LINE
  8
Contour
 62
   7
 39
0.100
  6
CONTINUOUS
 10
296.50000
 20
59.25000
 30
 0
 11
156.00000
 21
59.25000
  0
ARC
  8
Contour
 62
   7
 39
0.100
  6
CONTINUOUS
 10
156.00000
 20
58.25000
 30
 0
 40
1.00000
 50
90.00000
 51
180.00000
  0
LINE
  8
Contour
 62
   7
 39
0.100
  6
CONTINUOUS
 10
155.00000
 20
58.25000
 30
 0
 11
155.00000
 21
13.25000
  0
ARC
  8
Contour
 62
   7
 39
0.100
  6
CONTINUOUS
 10
45.00000
 20
17.52500
 30
 0
 40
1.00000
 50
180.00000
 51
270.00000
  0
LINE
  8
Contour
 62
   7
 39
0.100
  6
CONTINUOUS
 10
45.00000
 20
16.52500
 30
 0
 11
140.00000
 21
16.52500
  0
ARC
  8
Contour
 62
   7
 39
0.100
  6
CONTINUOUS
 10
140.00000
 20
17.52500
 30
 0
 40
1.00000
 50
270.00000
 51
360.00000
  0
LINE
  8
Contour
 62
   7
 39
0.100
  6
CONTINUOUS
 10
141.00000
 20
17.52500
 30
 0
 11
141.00000
 21
70.52500
  0
ARC
  8
Contour
 62
   7
 39
0.100
  6
CONTINUOUS
 10
140.00000
 20
70.52500
 30
 0
 40
1.00000
 50
0.00000
 51
90.00000
  0
LINE
  8
Contour
 62
   7
 39
0.100
  6
CONTINUOUS
 10
140.00000
 20
71.52500
 30
 0
 11
45.00000
 21
71.52500
  0
ARC
  8
Contour
 62
   7
 39
0.100
  6
CONTINUOUS
 10
45.00000
 20
70.52500
 30
 0
 40
1.00000
 50
90.00000
 51
180.00000
  0
LINE
  8
Contour
 62
   7
 39
0.100
  6
CONTINUOUS
 10
44.00000
 20
70.52500
 30
 0
 11
44.00000
 21
17.52500
  0
ARC
  8
Contour
 62
   7
 39
0.100
  6
CONTINUOUS
 10
7.30000
 20
6.20000
 30
 0
 40
3.50000
 50
180.00000
 51
270.00000
  0
LINE
  8
Contour
 62
   7
 39
0.100
  6
CONTINUOUS
 10
7.30000
 20
2.70000
 30
 0
 11
10.30000
 21
2.70000
  0
ARC
  8
Contour
 62
   7
 39
0.100
  6
CONTINUOUS
 10
10.30000
 20
6.20000
 30
 0
 40
3.50000
 50
270.00000
 51
360.00000
  0
LINE
  8
Contour
 62
   7
 39
0.100
  6
CONTINUOUS
 10
13.80000
 20
6.20000
 30
 0
 11
13.80000
 21
6.20000
  0
ARC
  8
Contour
 62
   7
 39
0.100
  6
CONTINUOUS
 10
10.30000
 20
6.20000
 30
 0
 40
3.50000
 50
0.00000
 51
90.00000
  0
LINE
  8
Contour
 62
   7
 39
0.100
  6
CONTINUOUS
 10
10.30000
 20
9.70000
 30
 0
 11
7.30000
 21
9.70000
  0
ARC
  8
Contour
 62
   7
 39
0.100
  6
CONTINUOUS
 10
7.30000
 20
6.20000
 30
 0
 40
3.50000
 50
90.00000
 51
180.00000
  0
LINE
  8
Contour
 62
   7
 39
0.100
  6
CONTINUOUS
 10
3.80000
 20
6.20000
 30
 0
 11
3.80000
 21
6.20000
  0
CIRCLE
  8
Contour
 62
   7
 39
0.100
  6
CONTINUOUS
 10
317.50000
 20
45.00000
 30
 0
 40
3.25000
  0
CIRCLE
  8
Contour
 62
   7
 39
0.100
  6
CONTINUOUS
 10
302.50000
 20
56.75000
 30
 0
 40
1.75000
  0
CIRCLE
  8
Contour
 62
   7
 39
0.100
  6
CONTINUOUS
 10
302.50000
 20
14.75000
 30
 0
 40
1.75000
  0
CIRCLE
  8
Contour
 62
   7
 39
0.100
  6
CONTINUOUS
 10
150.00000
 20
14.75000
 30
 0
 40
1.75000
  0
CIRCLE
  8
Contour
 62
   7
 39
0.100
  6
CONTINUOUS
 10
150.00000
 20
56.75000
 30
 0
 40
1.75000
  0
ARC
  8
Contour
 62
   7
 39
0.100
  6
CONTINUOUS
 10
425.00000
 20
60.00000
 30
 0
 40
10.49995
 50
213.55689
 51
326.44311
  0
ARC
  8
Contour
 62
   7
 39
0.100
  6
CONTINUOUS
 10
425.00000
 20
60.00000
 30
 0
 40
10.49995
 50
326.44311
 51
506.44311
  0
ARC
  8
Contour
 62
   7
 39
0.100
  6
CONTINUOUS
 10
417.50000
 20
64.97484
 30
 0
 40
1.50000
 50
146.44269
 51
179.99403
  0
LINE
  8
Contour
 62
   7
 39
0.100
  6
CONTINUOUS
 10
416.00000
 20
64.97500
 30
 0
 11
416.00000
 21
55.02500
  0
ARC
  8
Contour
 62
   7
 39
0.100
  6
CONTINUOUS
 10
417.50000
 20
55.02516
 30
 0
 40
1.50000
 50
180.00597
 51
213.55731
  0
ARC
  8
Contour
 62
   7
 39
0.100
  6
CONTINUOUS
 10
425.00000
 20
28.00000
 30
 0
 40
10.49995
 50
213.55689
 51
326.44311
  0
ARC
  8
Contour
 62
   7
 39
0.100
  6
CONTINUOUS
 10
425.00000
 20
28.00000
 30
 0
 40
10.49995
 50
326.44311
 51
506.44311
  0
ARC
  8
Contour
 62
   7
 39
0.100
  6
CONTINUOUS
 10
417.50000
 20
32.97484
 30
 0
 40
1.50000
 50
146.44269
 51
179.99403
  0
LINE
  8
Contour
 62
   7
 39
0.100
  6
CONTINUOUS
 10
416.00000
 20
32.97500
 30
 0
 11
416.00000
 21
23.02500
  0
ARC
  8
Contour
 62
   7
 39
0.100
  6
CONTINUOUS
 10
417.50000
 20
23.02516
 30
 0
 40
1.50000
 50
180.00597
 51
213.55731
  0
ARC
  8
Contour
 62
   7
 39
0.100
  6
CONTINUOUS
 10
7.30000
 20
82.40000
 30
 0
 40
3.50000
 50
180.00000
 51
270.00000
  0
LINE
  8
Contour
 62
   7
 39
0.100
  6
CONTINUOUS
 10
7.30000
 20
78.90000
 30
 0
 11
10.30000
 21
78.90000
  0
ARC
  8
Contour
 62
   7
 39
0.100
  6
CONTINUOUS
 10
10.30000
 20
82.40000
 30
 0
 40
3.50000
 50
270.00000
 51
360.00000
  0
LINE
  8
Contour
 62
   7
 39
0.100
  6
CONTINUOUS
 10
13.80000
 20
82.40000
 30
 0
 11
13.80000
 21
82.40000
  0
ARC
  8
Contour
 62
   7
 39
0.100
  6
CONTINUOUS
 10
10.30000
 20
82.40000
 30
 0
 40
3.50000
 50
0.00000
 51
90.00000
  0
LINE
  8
Contour
 62
   7
 39
0.100
  6
CONTINUOUS
 10
10.30000
 20
85.90000
 30
 0
 11
7.30000
 21
85.90000
  0
ARC
  8
Contour
 62
   7
 39
0.100
  6
CONTINUOUS
 10
7.30000
 20
82.40000
 30
 0
 40
3.50000
 50
90.00000
 51
180.00000
  0
LINE
  8
Contour
 62
   7
 39
0.100
  6
CONTINUOUS
 10
3.80000
 20
82.40000
 30
 0
 11
3.80000
 21
82.40000
  0
ARC
  8
Contour
 62
   7
 39
0.100
  6
CONTINUOUS
 10
472.42000
 20
82.40000
 30
 0
 40
3.50000
 50
180.00000
 51
270.00000
  0
LINE
  8
Contour
 62
   7
 39
0.100
  6
CONTINUOUS
 10
472.42000
 20
78.90000
 30
 0
 11
475.42000
 21
78.90000
  0
ARC
  8
Contour
 62
   7
 39
0.100
  6
CONTINUOUS
 10
475.42000
 20
82.40000
 30
 0
 40
3.50000
 50
270.00000
 51
360.00000
  0
LINE
  8
Contour
 62
   7
 39
0.100
  6
CONTINUOUS
 10
478.92000
 20
82.40000
 30
 0
 11
478.92000
 21
82.40000
  0
ARC
  8
Contour
 62
   7
 39
0.100
  6
CONTINUOUS
 10
475.42000
 20
82.40000
 30
 0
 40
3.50000
 50
0.00000
 51
90.00000
  0
LINE
  8
Contour
 62
   7
 39
0.100
  6
CONTINUOUS
 10
475.42000
 20
85.90000
 30
 0
 11
472.42000
 21
85.90000
  0
ARC
  8
Contour
 62
   7
 39
0.100
  6
CONTINUOUS
 10
472.42000
 20
82.40000
 30
 0
 40
3.50000
 50
90.00000
 51
180.00000
  0
LINE
  8
Contour
 62
   7
 39
0.100
  6
CONTINUOUS
 10
468.92000
 20
82.40000
 30
 0
 11
468.92000
 21
82.40000
  0
ARC
  8
Contour
 62
   7
 39
0.100
  6
CONTINUOUS
 10
472.42000
 20
6.20000
 30
 0
 40
3.50000
 50
180.00000
 51
270.00000
  0
LINE
  8
Contour
 62
   7
 39
0.100
  6
CONTINUOUS
 10
472.42000
 20
2.70000
 30
 0
 11
475.42000
 21
2.70000
  0
ARC
  8
Contour
 62
   7
 39
0.100
  6
CONTINUOUS
 10
475.42000
 20
6.20000
 30
 0
 40
3.50000
 50
270.00000
 51
360.00000
  0
LINE
  8
Contour
 62
   7
 39
0.100
  6
CONTINUOUS
 10
478.92000
 20
6.20000
 30
 0
 11
478.92000
 21
6.20000
  0
ARC
  8
Contour
 62
   7
 39
0.100
  6
CONTINUOUS
 10
475.42000
 20
6.20000
 30
 0
 40
3.50000
 50
0.00000
 51
90.00000
  0
LINE
  8
Contour
 62
   7
 39
0.100
  6
CONTINUOUS
 10
475.42000
 20
9.70000
 30
 0
 11
472.42000
 21
9.70000
  0
ARC
  8
Contour
 62
   7
 39
0.100
  6
CONTINUOUS
 10
472.42000
 20
6.20000
 30
 0
 40
3.50000
 50
90.00000
 51
180.00000
  0
LINE
  8
Contour
 62
   7
 39
0.100
  6
CONTINUOUS
 10
468.92000
 20
6.20000
 30
 0
 11
468.92000
 21
6.20000
  0
CIRCLE
  8
Contour
 62
   7
 39
0.100
  6
CONTINUOUS
 10
340.00000
 20
20.00000
 30
 0
 40
3.25000
  0
CIRCLE
  8
Contour
 62
   7
 39
0.100
  6
CONTINUOUS
 10
340.00000
 20
45.00000
 30
 0
 40
3.25000
  0
CIRCLE
  8
Contour
 62
   7
 39
0.100
  6
CONTINUOUS
 10
340.00000
 20
70.00000
 30
 0
 40
3.25000
  0
ARC
  8
Contour
 62
   7
 39
0.100
  6
CONTINUOUS
 10
361.75000
 20
35.17922
 30
 0
 40
2.50000
 50
180.00497
 51
279.97393
  0
LINE
  8
Contour
 62
   7
 39
0.100
  6
CONTINUOUS
 10
362.18300
 20
32.71700
 30
 0
 11
368.68400
 21
33.86300
  0
ARC
  8
Contour
 62
   7
 39
0.100
  6
CONTINUOUS
 10
368.25000
 20
36.32504
 30
 0
 40
2.50000
 50
279.99719
 51
359.97615
  0
LINE
  8
Contour
 62
   7
 39
0.100
  6
CONTINUOUS
 10
370.75000
 20
36.32400
 30
 0
 11
370.75000
 21
49.03600
  0
ARC
  8
Contour
 62
   7
 39
0.100
  6
CONTINUOUS
 10
368.25000
 20
49.03496
 30
 0
 40
2.50000
 50
0.02385
 51
80.00281
  0
LINE
  8
Contour
 62
   7
 39
0.100
  6
CONTINUOUS
 10
368.68400
 20
51.49700
 30
 0
 11
362.18300
 21
52.64300
  0
ARC
  8
Contour
 62
   7
 39
0.100
  6
CONTINUOUS
 10
361.75000
 20
50.18078
 30
 0
 40
2.50000
 50
80.02607
 51
179.99503
  0
LINE
  8
Contour
 62
   7
 39
0.100
  6
CONTINUOUS
 10
359.25000
 20
50.18100
 30
 0
 11
359.25000
 21
35.17900
  0
CIRCLE
  8
Contour
 62
   7
 39
0.100
  6
CONTINUOUS
 10
365.00000
 20
55.18000
 30
 0
 40
1.60000
  0
CIRCLE
  8
Contour
 62
   7
 39
0.100
  6
CONTINUOUS
 10
365.00000
 20
30.18000
 30
 0
 40
1.60000
  0
ARC
  8
Contour
 62
   7
 39
0.100
  6
CONTINUOUS
 10
388.45000
 20
55.70000
 30
 0
 40
0.50000
 50
180.00000
 51
270.00000
  0
LINE
  8
Contour
 62
   7
 39
0.100
  6
CONTINUOUS
 10
388.45000
 20
55.20000
 30
 0
 11
401.55000
 21
55.20000
  0
ARC
  8
Contour
 62
   7
 39
0.100
  6
CONTINUOUS
 10
401.55000
 20
55.70000
 30
 0
 40
0.50000
 50
270.00000
 51
360.00000
  0
LINE
  8
Contour
 62
   7
 39
0.100
  6
CONTINUOUS
 10
402.05000
 20
55.70000
 30
 0
 11
402.05000
 21
64.30000
  0
ARC
  8
Contour
 62
   7
 39
0.100
  6
CONTINUOUS
 10
401.55000
 20
64.30000
 30
 0
 40
0.50000
 50
0.00000
 51
90.00000
  0
LINE
  8
Contour
 62
   7
 39
0.100
  6
CONTINUOUS
 10
401.55000
 20
64.80000
 30
 0
 11
388.45000
 21
64.80000
  0
ARC
  8
Contour
 62
   7
 39
0.100
  6
CONTINUOUS
 10
388.45000
 20
64.30000
 30
 0
 40
0.50000
 50
90.00000
 51
180.00000
  0
LINE
  8
Contour
 62
   7
 39
0.100
  6
CONTINUOUS
 10
387.95000
 20
64.30000
 30
 0
 11
387.95000
 21
55.70000
  0
CIRCLE
  8
Contour
 62
   7
 39
0.100
  6
CONTINUOUS
 10
403.86000
 20
60.00000
 30
 0
 40
1.25000
  0
CIRCLE
  8
Contour
 62
   7
 39
0.100
  6
CONTINUOUS
 10
386.14000
 20
60.00000
 30
 0
 40
1.25000
  0
ARC
  8
Contour
 62
   7
 39
0.100
  6
CONTINUOUS
 10
388.45000
 20
25.70000
 30
 0
 40
0.50000
 50
180.00000
 51
270.00000
  0
LINE
  8
Contour
 62
   7
 39
0.100
  6
CONTINUOUS
 10
388.45000
 20
25.20000
 30
 0
 11
401.55000
 21
25.20000
  0
ARC
  8
Contour
 62
   7
 39
0.100
  6
CONTINUOUS
 10
401.55000
 20
25.70000
 30
 0
 40
0.50000
 50
270.00000
 51
360.00000
  0
LINE
  8
Contour
 62
   7
 39
0.100
  6
CONTINUOUS
 10
402.05000
 20
25.70000
 30
 0
 11
402.05000
 21
34.30000
  0
ARC
  8
Contour
 62
   7
 39
0.100
  6
CONTINUOUS
 10
401.55000
 20
34.30000
 30
 0
 40
0.50000
 50
0.00000
 51
90.00000
  0
LINE
  8
Contour
 62
   7
 39
0.100
  6
CONTINUOUS
 10
401.55000
 20
34.80000
 30
 0
 11
388.45000
 21
34.80000
  0
ARC
  8
Contour
 62
   7
 39
0.100
  6
CONTINUOUS
 10
388.45000
 20
34.30000
 30
 0
 40
0.50000
 50
90.00000
 51
180.00000
  0
LINE
  8
Contour
 62
   7
 39
0.100
  6
CONTINUOUS
 10
387.95000
 20
34.30000
 30
 0
 11
387.95000
 21
25.70000
  0
CIRCLE
  8
Contour
 62
   7
 39
0.100
  6
CONTINUOUS
 10
403.86000
 20
30.00000
 30
 0
 40
1.25000
  0
CIRCLE
  8
Contour
 62
   7
 39
0.100
  6
CONTINUOUS
 10
386.14000
 20
30.00000
 30
 0
 40
1.25000
  0
CIRCLE
  8
Contour
 62
   7
 39
0.100
  6
CONTINUOUS
 10
317.23600
 20
20.00000
 30
 0
 40
3.25000
  0
CIRCLE
  8
Contour
 62
   7
 39
0.100
  6
CONTINUOUS
 10
317.50000
 20
70.00000
 30
 0
 40
3.25000
  0
LINE
  8
Reference_points
 62
   1
 39
0.100
  6
CONTINUOUS
 10
-1.97400
 20
0.00000
 30
 0
 11
1.97400
 21
0.00000
  0
LINE
  8
Reference_points
 62
   1
 39
0.100
  6
CONTINUOUS
 10
0.00000
 20
-1.97400
 30
 0
 11
0.00000
 21
1.97400
  0
LINE
  8
Reference_points
 62
   1
 39
0.100
  6
CONTINUOUS
 10
34.42600
 20
14.50000
 30
 0
 11
38.37400
 21
14.50000
  0
LINE
  8
Reference_points
 62
   1
 39
0.100
  6
CONTINUOUS
 10
36.40000
 20
12.52600
 30
 0
 11
36.40000
 21
16.47400
  0
LINE
  8
Reference_points
 62
   1
 39
0.100
  6
CONTINUOUS
 10
34.42600
 20
74.50000
 30
 0
 11
38.37400
 21
74.50000
  0
LINE
  8
Reference_points
 62
   1
 39
0.100
  6
CONTINUOUS
 10
36.40000
 20
72.52600
 30
 0
 11
36.40000
 21
76.47400
  0
LINE
  8
Reference_points
 62
   1
 39
0.100
  6
CONTINUOUS
 10
444.62600
 20
74.50000
 30
 0
 11
448.57400
 21
74.50000
  0
LINE
  8
Reference_points
 62
   1
 39
0.100
  6
CONTINUOUS
 10
446.60000
 20
72.52600
 30
 0
 11
446.60000
 21
76.47400
  0
LINE
  8
Reference_points
 62
   1
 39
0.100
  6
CONTINUOUS
 10
444.62600
 20
14.50000
 30
 0
 11
448.57400
 21
14.50000
  0
LINE
  8
Reference_points
 62
   1
 39
0.100
  6
CONTINUOUS
 10
446.60000
 20
12.52600
 30
 0
 11
446.60000
 21
16.47400
  0
LINE
  8
Reference_points
 62
   1
 39
0.100
  6
CONTINUOUS
 10
224.27600
 20
35.75000
 30
 0
 11
228.22400
 21
35.75000
  0
LINE
  8
Reference_points
 62
   1
 39
0.100
  6
CONTINUOUS
 10
226.25000
 20
33.77600
 30
 0
 11
226.25000
 21
37.72400
  0
LINE
  8
Reference_points
 62
   1
 39
0.100
  6
CONTINUOUS
 10
90.52600
 20
44.02500
 30
 0
 11
94.47400
 21
44.02500
  0
LINE
  8
Reference_points
 62
   1
 39
0.100
  6
CONTINUOUS
 10
92.50000
 20
42.05100
 30
 0
 11
92.50000
 21
45.99900
  0
LINE
  8
Reference_points
 62
   1
 39
0.100
  6
CONTINUOUS
 10
158.02600
 20
62.50000
 30
 0
 11
161.97400
 21
62.50000
  0
LINE
  8
Reference_points
 62
   1
 39
0.100
  6
CONTINUOUS
 10
160.00000
 20
60.52600
 30
 0
 11
160.00000
 21
64.47400
  0
LINE
  8
Reference_points
 62
   1
 39
0.100
  6
CONTINUOUS
 10
233.02600
 20
62.50000
 30
 0
 11
236.97400
 21
62.50000
  0
LINE
  8
Reference_points
 62
   1
 39
0.100
  6
CONTINUOUS
 10
235.00000
 20
60.52600
 30
 0
 11
235.00000
 21
64.47400
  0
LINE
  8
Reference_points
 62
   1
 39
0.100
  6
CONTINUOUS
 10
6.82600
 20
6.20000
 30
 0
 11
10.77400
 21
6.20000
  0
LINE
  8
Reference_points
 62
   1
 39
0.100
  6
CONTINUOUS
 10
8.80000
 20
4.22600
 30
 0
 11
8.80000
 21
8.17400
  0
LINE
  8
Reference_points
 62
   1
 39
0.100
  6
CONTINUOUS
 10
12.17000
 20
44.25000
 30
 0
 11
16.11800
 21
44.25000
  0
LINE
  8
Reference_points
 62
   1
 39
0.100
  6
CONTINUOUS
 10
14.14400
 20
42.27600
 30
 0
 11
14.14400
 21
46.22400
  0
LINE
  8
Reference_points
 62
   1
 39
0.100
  6
CONTINUOUS
 10
315.52600
 20
45.00000
 30
 0
 11
319.47400
 21
45.00000
  0
LINE
  8
Reference_points
 62
   1
 39
0.100
  6
CONTINUOUS
 10
317.50000
 20
43.02600
 30
 0
 11
317.50000
 21
46.97400
  0
LINE
  8
Reference_points
 62
   1
 39
0.100
  6
CONTINUOUS
 10
315.52600
 20
35.00000
 30
 0
 11
319.47400
 21
35.00000
  0
LINE
  8
Reference_points
 62
   1
 39
0.100
  6
CONTINUOUS
 10
317.50000
 20
33.02600
 30
 0
 11
317.50000
 21
36.97400
  0
LINE
  8
Reference_points
 62
   1
 39
0.100
  6
CONTINUOUS
 10
300.52600
 20
56.75000
 30
 0
 11
304.47400
 21
56.75000
  0
LINE
  8
Reference_points
 62
   1
 39
0.100
  6
CONTINUOUS
 10
302.50000
 20
54.77600
 30
 0
 11
302.50000
 21
58.72400
  0
LINE
  8
Reference_points
 62
   1
 39
0.100
  6
CONTINUOUS
 10
300.52600
 20
14.75000
 30
 0
 11
304.47400
 21
14.75000
  0
LINE
  8
Reference_points
 62
   1
 39
0.100
  6
CONTINUOUS
 10
302.50000
 20
12.77600
 30
 0
 11
302.50000
 21
16.72400
  0
LINE
  8
Reference_points
 62
   1
 39
0.100
  6
CONTINUOUS
 10
148.02600
 20
14.75000
 30
 0
 11
151.97400
 21
14.75000
  0
LINE
  8
Reference_points
 62
   1
 39
0.100
  6
CONTINUOUS
 10
150.00000
 20
12.77600
 30
 0
 11
150.00000
 21
16.72400
  0
LINE
  8
Reference_points
 62
   1
 39
0.100
  6
CONTINUOUS
 10
148.02600
 20
56.75000
 30
 0
 11
151.97400
 21
56.75000
  0
LINE
  8
Reference_points
 62
   1
 39
0.100
  6
CONTINUOUS
 10
150.00000
 20
54.77600
 30
 0
 11
150.00000
 21
58.72400
  0
LINE
  8
Reference_points
 62
   1
 39
0.100
  6
CONTINUOUS
 10
423.02600
 20
60.00000
 30
 0
 11
426.97400
 21
60.00000
  0
LINE
  8
Reference_points
 62
   1
 39
0.100
  6
CONTINUOUS
 10
425.00000
 20
58.02600
 30
 0
 11
425.00000
 21
61.97400
  0
LINE
  8
Reference_points
 62
   1
 39
0.100
  6
CONTINUOUS
 10
423.02600
 20
28.00000
 30
 0
 11
426.97400
 21
28.00000
  0
LINE
  8
Reference_points
 62
   1
 39
0.100
  6
CONTINUOUS
 10
425.00000
 20
26.02600
 30
 0
 11
425.00000
 21
29.97400
  0
LINE
  8
Reference_points
 62
   1
 39
0.100
  6
CONTINUOUS
 10
423.02600
 20
11.00000
 30
 0
 11
426.97400
 21
11.00000
  0
LINE
  8
Reference_points
 62
   1
 39
0.100
  6
CONTINUOUS
 10
425.00000
 20
9.02600
 30
 0
 11
425.00000
 21
12.97400
  0
LINE
  8
Reference_points
 62
   1
 39
0.100
  6
CONTINUOUS
 10
423.02600
 20
77.00000
 30
 0
 11
426.97400
 21
77.00000
  0
LINE
  8
Reference_points
 62
   1
 39
0.100
  6
CONTINUOUS
 10
425.00000
 20
75.02600
 30
 0
 11
425.00000
 21
78.97400
  0
LINE
  8
Reference_points
 62
   1
 39
0.100
  6
CONTINUOUS
 10
6.82600
 20
82.40000
 30
 0
 11
10.77400
 21
82.40000
  0
LINE
  8
Reference_points
 62
   1
 39
0.100
  6
CONTINUOUS
 10
8.80000
 20
80.42600
 30
 0
 11
8.80000
 21
84.37400
  0
LINE
  8
Reference_points
 62
   1
 39
0.100
  6
CONTINUOUS
 10
471.94600
 20
82.40000
 30
 0
 11
475.89400
 21
82.40000
  0
LINE
  8
Reference_points
 62
   1
 39
0.100
  6
CONTINUOUS
 10
473.92000
 20
80.42600
 30
 0
 11
473.92000
 21
84.37400
  0
LINE
  8
Reference_points
 62
   1
 39
0.100
  6
CONTINUOUS
 10
471.94600
 20
6.20000
 30
 0
 11
475.89400
 21
6.20000
  0
LINE
  8
Reference_points
 62
   1
 39
0.100
  6
CONTINUOUS
 10
473.92000
 20
4.22600
 30
 0
 11
473.92000
 21
8.17400
  0
LINE
  8
Reference_points
 62
   1
 39
0.100
  6
CONTINUOUS
 10
338.02600
 20
20.00000
 30
 0
 11
341.97400
 21
20.00000
  0
LINE
  8
Reference_points
 62
   1
 39
0.100
  6
CONTINUOUS
 10
340.00000
 20
18.02600
 30
 0
 11
340.00000
 21
21.97400
  0
LINE
  8
Reference_points
 62
   1
 39
0.100
  6
CONTINUOUS
 10
338.02600
 20
45.00000
 30
 0
 11
341.97400
 21
45.00000
  0
LINE
  8
Reference_points
 62
   1
 39
0.100
  6
CONTINUOUS
 10
340.00000
 20
43.02600
 30
 0
 11
340.00000
 21
46.97400
  0
LINE
  8
Reference_points
 62
   1
 39
0.100
  6
CONTINUOUS
 10
338.02600
 20
35.00000
 30
 0
 11
341.97400
 21
35.00000
  0
LINE
  8
Reference_points
 62
   1
 39
0.100
  6
CONTINUOUS
 10
340.00000
 20
33.02600
 30
 0
 11
340.00000
 21
36.97400
  0
LINE
  8
Reference_points
 62
   1
 39
0.100
  6
CONTINUOUS
 10
338.02600
 20
10.00000
 30
 0
 11
341.97400
 21
10.00000
  0
LINE
  8
Reference_points
 62
   1
 39
0.100
  6
CONTINUOUS
 10
340.00000
 20
8.02600
 30
 0
 11
340.00000
 21
11.97400
  0
LINE
  8
Reference_points
 62
   1
 39
0.100
  6
CONTINUOUS
 10
338.02600
 20
70.00000
 30
 0
 11
341.97400
 21
70.00000
  0
LINE
  8
Reference_points
 62
   1
 39
0.100
  6
CONTINUOUS
 10
340.00000
 20
68.02600
 30
 0
 11
340.00000
 21
71.97400
  0
LINE
  8
Reference_points
 62
   1
 39
0.100
  6
CONTINUOUS
 10
338.02600
 20
60.00000
 30
 0
 11
341.97400
 21
60.00000
  0
LINE
  8
Reference_points
 62
   1
 39
0.100
  6
CONTINUOUS
 10
340.00000
 20
58.02600
 30
 0
 11
340.00000
 21
61.97400
  0
LINE
  8
Reference_points
 62
   1
 39
0.100
  6
CONTINUOUS
 10
363.02600
 20
42.68000
 30
 0
 11
366.97400
 21
42.68000
  0
LINE
  8
Reference_points
 62
   1
 39
0.100
  6
CONTINUOUS
 10
365.00000
 20
40.70600
 30
 0
 11
365.00000
 21
44.65400
  0
LINE
  8
Reference_points
 62
   1
 39
0.100
  6
CONTINUOUS
 10
363.02600
 20
55.18000
 30
 0
 11
366.97400
 21
55.18000
  0
LINE
  8
Reference_points
 62
   1
 39
0.100
  6
CONTINUOUS
 10
365.00000
 20
53.20600
 30
 0
 11
365.00000
 21
57.15400
  0
LINE
  8
Reference_points
 62
   1
 39
0.100
  6
CONTINUOUS
 10
363.02600
 20
30.18000
 30
 0
 11
366.97400
 21
30.18000
  0
LINE
  8
Reference_points
 62
   1
 39
0.100
  6
CONTINUOUS
 10
365.00000
 20
28.20600
 30
 0
 11
365.00000
 21
32.15400
  0
LINE
  8
Reference_points
 62
   1
 39
0.100
  6
CONTINUOUS
 10
363.02600
 20
42.68000
 30
 0
 11
366.97400
 21
42.68000
  0
LINE
  8
Reference_points
 62
   1
 39
0.100
  6
CONTINUOUS
 10
365.00000
 20
40.70600
 30
 0
 11
365.00000
 21
44.65400
  0
LINE
  8
Reference_points
 62
   1
 39
0.100
  6
CONTINUOUS
 10
363.02600
 20
17.00000
 30
 0
 11
366.97400
 21
17.00000
  0
LINE
  8
Reference_points
 62
   1
 39
0.100
  6
CONTINUOUS
 10
365.00000
 20
15.02600
 30
 0
 11
365.00000
 21
18.97400
  0
LINE
  8
Reference_points
 62
   1
 39
0.100
  6
CONTINUOUS
 10
393.02600
 20
60.00000
 30
 0
 11
396.97400
 21
60.00000
  0
LINE
  8
Reference_points
 62
   1
 39
0.100
  6
CONTINUOUS
 10
395.00000
 20
58.02600
 30
 0
 11
395.00000
 21
61.97400
  0
LINE
  8
Reference_points
 62
   1
 39
0.100
  6
CONTINUOUS
 10
401.88600
 20
60.00000
 30
 0
 11
405.83400
 21
60.00000
  0
LINE
  8
Reference_points
 62
   1
 39
0.100
  6
CONTINUOUS
 10
403.86000
 20
58.02600
 30
 0
 11
403.86000
 21
61.97400
  0
LINE
  8
Reference_points
 62
   1
 39
0.100
  6
CONTINUOUS
 10
384.16600
 20
60.00000
 30
 0
 11
388.11400
 21
60.00000
  0
LINE
  8
Reference_points
 62
   1
 39
0.100
  6
CONTINUOUS
 10
386.14000
 20
58.02600
 30
 0
 11
386.14000
 21
61.97400
  0
LINE
  8
Reference_points
 62
   1
 39
0.100
  6
CONTINUOUS
 10
393.02600
 20
30.00000
 30
 0
 11
396.97400
 21
30.00000
  0
LINE
  8
Reference_points
 62
   1
 39
0.100
  6
CONTINUOUS
 10
395.00000
 20
28.02600
 30
 0
 11
395.00000
 21
31.97400
  0
LINE
  8
Reference_points
 62
   1
 39
0.100
  6
CONTINUOUS
 10
401.88600
 20
30.00000
 30
 0
 11
405.83400
 21
30.00000
  0
LINE
  8
Reference_points
 62
   1
 39
0.100
  6
CONTINUOUS
 10
403.86000
 20
28.02600
 30
 0
 11
403.86000
 21
31.97400
  0
LINE
  8
Reference_points
 62
   1
 39
0.100
  6
CONTINUOUS
 10
384.16600
 20
30.00000
 30
 0
 11
388.11400
 21
30.00000
  0
LINE
  8
Reference_points
 62
   1
 39
0.100
  6
CONTINUOUS
 10
386.14000
 20
28.02600
 30
 0
 11
386.14000
 21
31.97400
  0
LINE
  8
Reference_points
 62
   1
 39
0.100
  6
CONTINUOUS
 10
393.02600
 20
47.00000
 30
 0
 11
396.97400
 21
47.00000
  0
LINE
  8
Reference_points
 62
   1
 39
0.100
  6
CONTINUOUS
 10
395.00000
 20
45.02600
 30
 0
 11
395.00000
 21
48.97400
  0
LINE
  8
Reference_points
 62
   1
 39
0.100
  6
CONTINUOUS
 10
393.02600
 20
17.00000
 30
 0
 11
396.97400
 21
17.00000
  0
LINE
  8
Reference_points
 62
   1
 39
0.100
  6
CONTINUOUS
 10
395.00000
 20
15.02600
 30
 0
 11
395.00000
 21
18.97400
  0
LINE
  8
Reference_points
 62
   1
 39
0.100
  6
CONTINUOUS
 10
393.02600
 20
40.80000
 30
 0
 11
396.97400
 21
40.80000
  0
LINE
  8
Reference_points
 62
   1
 39
0.100
  6
CONTINUOUS
 10
395.00000
 20
38.82600
 30
 0
 11
395.00000
 21
42.77400
  0
LINE
  8
Reference_points
 62
   1
 39
0.100
  6
CONTINUOUS
 10
315.26200
 20
20.00000
 30
 0
 11
319.21000
 21
20.00000
  0
LINE
  8
Reference_points
 62
   1
 39
0.100
  6
CONTINUOUS
 10
317.23600
 20
18.02600
 30
 0
 11
317.23600
 21
21.97400
  0
LINE
  8
Reference_points
 62
   1
 39
0.100
  6
CONTINUOUS
 10
315.52600
 20
10.00000
 30
 0
 11
319.47400
 21
10.00000
  0
LINE
  8
Reference_points
 62
   1
 39
0.100
  6
CONTINUOUS
 10
317.50000
 20
8.02600
 30
 0
 11
317.50000
 21
11.97400
  0
LINE
  8
Reference_points
 62
   1
 39
0.100
  6
CONTINUOUS
 10
315.52600
 20
70.00000
 30
 0
 11
319.47400
 21
70.00000
  0
LINE
  8
Reference_points
 62
   1
 39
0.100
  6
CONTINUOUS
 10
317.50000
 20
68.02600
 30
 0
 11
317.50000
 21
71.97400
  0
LINE
  8
Reference_points
 62
   1
 39
0.100
  6
CONTINUOUS
 10
315.52600
 20
60.00000
 30
 0
 11
319.47400
 21
60.00000
  0
LINE
  8
Reference_points
 62
   1
 39
0.100
  6
CONTINUOUS
 10
317.50000
 20
58.02600
 30
 0
 11
317.50000
 21
61.97400
  0
ENDSEC
  0
EOF
